<mxfile host="app.diagrams.net" modified="2023-03-10T09:59:06.332Z" agent="5.0 (X11; Linux x86_64) AppleWebKit/537.36 (KHTML, like Gecko) Chrome/111.0.0.0 Safari/537.36" etag="O5lShX_6BTfwvrN9jPXV" version="21.0.6" type="github">
  <diagram name="Page-1" id="UYAKuGyApjuQzm562IQM">
    <mxGraphModel dx="2074" dy="1088" grid="1" gridSize="10" guides="1" tooltips="1" connect="1" arrows="1" fold="1" page="1" pageScale="1" pageWidth="1654" pageHeight="1169" math="0" shadow="0">
      <root>
        <mxCell id="0" />
        <mxCell id="1" parent="0" />
      </root>
    </mxGraphModel>
  </diagram>
</mxfile>
